HIERARCHY
ROOT Hips
{
	OFFSET 0.00000 0.00000 0.00000
	CHANNELS 6 Xposition Yposition Zposition Yrotation Zrotation Xrotation 
	JOINT Lumbar
	{
		OFFSET 0 0 0
		CHANNELS 3 Zrotation Xrotation Yrotation
		JOINT Neck
		{
			OFFSET 0.00 0.2701 0.00
			CHANNELS 3 Zrotation Xrotation Yrotation
			End Site
			{
				OFFSET 0.00 0.1379 0.00
			}
		}
		JOINT RightShoulder
		{
			OFFSET 0.0119 0.2289 0.1181
			CHANNELS 3 Zrotation Xrotation Yrotation
			JOINT RightElbow
			{
				OFFSET 0.00 -0.1475 0.00
				CHANNELS 2 Zrotation Yrotation
				JOINT RightWrist
				{
					OFFSET 0.00 -0.1605 0.00
					CHANNELS 2 Zrotation Xrotation
					End Site
					{
						OFFSET 0.0040 -0.1068 0.0006
					}
				}
			}
		}
		JOINT LeftShoulder
		{
			OFFSET 0.0119 0.2289 -0.1181
			CHANNELS 3 Zrotation Xrotation Yrotation
			JOINT LeftElbow
			{
				OFFSET 0.00 -0.1475 0.00
				CHANNELS 2 Zrotation Yrotation
				JOINT LeftWrist
				{
					OFFSET 0.00 -0.1605 0.00
					CHANNELS 2 Zrotation Xrotation
					End Site
					{
						OFFSET 0.0040 -0.1068 -0.0006
					}
				}
			}
		}
	}
	JOINT RightHip
	{
		OFFSET 0.0316 -0.0424 0.0458
		CHANNELS 3 Zrotation Xrotation Yrotation
		JOINT RightKnee
		{
			OFFSET 0.00 -0.2438 0.00
			CHANNELS 1 Zrotation
			JOINT RightAnkle
			{
				OFFSET 0.00 -0.2449 0.00
				CHANNELS 3 Zrotation Xrotation Yrotation
				End Site
				{
					OFFSET 0.1237 -0.0542 0.0051
				}
			}
		}
	}
	JOINT LeftHip
	{
		OFFSET 0.0316 -0.0424 -0.0458
		CHANNELS 3 Zrotation Xrotation Yrotation
		JOINT LeftKnee
		{
			OFFSET 0.00 -0.2438 0.00
			CHANNELS 1 Zrotation
			JOINT LeftAnkle
			{
				OFFSET 0.00 -0.2449 0.00
				CHANNELS 3 Zrotation Xrotation Yrotation
				End Site
				{
					OFFSET 0.1237 -0.0542 -0.0051
				}
			}
		}
	}
}
MOTION
Frames: 19
Frame Time: 0.02
0.61275 -0.01534 -0.46814 871.4209 -28.14872 -4.68306 33.4888 4.04356 -7.5899 -15.56094 5.07608 -2.11994 166.38669 -160.06357 -87.14645 5.78809 66.75107 -74.94093 -21.5362 166.38429 135.87098 87.14409 49.86012 -65.33334 -74.96636 21.4993 58.19119 0.05743 -13.72359 -50.61297 -8.0756 -3.37593 -3.95597 38.41202 10.1109 7.82624 -34.81094 -6.71679 0.33561 2.40884
0.60538 -0.01628 -0.47246 872.1219 -28.30019 -4.59131 33.43251 4.18056 -7.38749 -15.50054 5.47015 -2.11994 166.38695 -160.17088 -87.14656 5.78753 66.19487 -75.42722 -22.08672 166.38791 134.9708 87.14799 53.58169 -64.96661 -75.40878 22.178 58.65784 0.221 -14.16419 -45.98181 -8.09171 -3.18093 -3.86167 37.75852 10.2944 7.90824 -35.05515 -6.72733 0.28536 2.38733
0.59784 -0.01739 -0.47681 872.77142 -28.49048 -4.44425 33.38884 4.31899 -7.12824 -15.46858 5.80985 -2.11994 166.38698 -160.22004 -87.14663 5.7874 66.65933 -75.15304 -21.76984 166.38692 133.87567 87.14677 58.09016 -65.07012 -75.16652 21.77269 58.90665 0.45037 -14.73256 -41.0705 -8.16287 -2.95987 -3.75772 37.12889 10.42775 7.89697 -35.30604 -6.73546 0.24874 2.37316
0.59034 -0.01845 -0.48117 873.45223 -28.66495 -4.31877 33.3427 4.45699 -6.90494 -15.42573 6.17172 -2.11994 166.38689 -160.29581 -87.14666 5.78745 66.63563 -75.2275 -21.87362 166.38667 132.90696 87.14661 62.13571 -64.9453 -75.22721 21.8904 59.25047 0.65243 -15.20432 -36.35146 -8.20408 -2.75493 -3.65994 36.48875 10.58714 7.93475 -35.556 -6.7461 0.20541 2.3554
0.58299 -0.01944 -0.48543 874.09583 -28.83522 -4.20755 33.2834 4.59347 -6.63306 -15.37481 6.54433 -2.11994 166.38695 -160.37266 -87.14674 5.78723 66.69541 -75.24836 -21.89976 166.38712 131.78136 87.14705 66.63933 -64.85849 -75.2477 21.91195 59.60558 0.84676 -15.84036 -31.31618 -8.26531 -2.52963 -3.55344 35.84922 10.73455 7.94968 -35.79482 -6.75074 0.16463 2.33888
0.57529 -0.02059 -0.4899 874.80675 -29.0214 -4.05367 33.25412 4.73419 -6.4514 -15.34742 6.88204 -2.11994 166.38694 -160.43263 -87.14679 5.78719 66.83076 -75.21424 -21.86807 166.38684 130.93714 87.14676 70.36352 -64.81328 -75.2156 21.86249 59.88747 1.06998 -16.16292 -26.90224 -8.29927 -2.34205 -3.46362 35.21395 10.89448 7.98577 -36.06093 -6.76781 0.1215 2.32142
0.56673 -0.02218 -0.49488 875.70887 -29.25075 -3.79686 33.3064 4.8803 -6.5288 -15.37618 7.1313 -2.11994 166.38694 -160.46146 -87.1468 5.78721 66.92927 -75.23507 -21.89376 166.38693 130.89263 87.14686 71.8305 -64.77092 -75.23449 21.89506 60.02057 1.3767 -15.60407 -24.11096 -8.23085 -2.2573 -3.41784 34.57936 11.09965 8.13025 -36.38357 -6.81409 0.07006 2.30012
0.55781 -0.02392 -0.50007 876.68201 -29.4927 -3.499 33.38796 5.03191 -6.7002 -15.42792 7.34793 -2.11994 166.38694 -160.4748 -87.14679 5.78724 67.07052 -75.22902 -21.88537 166.38695 131.14139 87.14687 72.4699 -64.75863 -75.22859 21.88323 60.08742 1.70642 -14.72431 -21.98762 -8.13514 -2.21293 -3.39004 33.95069 11.31934 8.29333 -36.7388 -6.87425 0.01544 2.2775
0.54901 -0.02557 -0.50519 877.62825 -29.72282 -3.21902 33.45502 5.18468 -6.83235 -15.47021 7.58337 -2.11994 166.38694 -160.49419 -87.14679 5.78728 67.19239 -75.22788 -21.88473 166.38692 131.27225 87.14685 73.42857 -64.73196 -75.22788 21.88345 60.18647 2.01225 -13.97886 -19.66968 -8.06131 -2.15552 -3.35712 33.31999 11.53296 8.43029 -37.08772 -6.93136 -0.03876 2.25509
0.54038 -0.02734 -0.51023 878.5512 -29.98035 -2.93987 33.528 5.32134 -6.94898 -15.50919 7.80141 -2.11994 166.38694 -160.51587 -87.14679 5.78732 67.34977 -75.23039 -21.88757 166.38694 131.33383 87.14688 74.65019 -64.71771 -75.23249 21.89544 60.27259 2.37669 -13.27873 -16.88589 -7.95112 -2.07531 -3.31131 32.67975 11.74198 8.64052 -37.39231 -6.97344 -0.08808 2.23456
0.53132 -0.02888 -0.51548 879.53861 -30.183 -2.65059 33.59487 5.49376 -7.11951 -15.56028 8.04699 -2.11994 166.38694 -160.5297 -87.14679 5.78735 67.42955 -75.22883 -21.88569 166.38694 131.60894 87.14688 75.12301 -64.68694 -75.22312 21.86793 60.36828 2.62424 -12.41613 -15.22926 -7.90731 -2.05179 -3.2963 32.07003 11.96549 8.70139 -37.80777 -7.05164 -0.14856 2.20974
0.52115 -0.02983 -0.52127 880.70063 -30.23276 -2.33849 33.64222 5.75551 -7.42897 -15.63805 8.39073 -2.11994 166.38694 -160.5272 -87.14679 5.78731 67.28557 -75.22933 -21.88641 166.38694 132.42689 87.14688 73.6769 -64.5285 -75.23729 21.90972 60.5452 2.53775 -11.099 -16.57141 -8.07167 -2.18148 -3.36601 31.46165 12.21852 8.36711 -38.42738 -7.21288 -0.23859 2.17329
0.51057 -0.03054 -0.52726 881.92253 -30.2262 -2.01878 33.68129 6.05439 -7.78696 -15.72735 8.76062 -2.11994 166.38694 -160.51728 -87.14679 5.78726 67.05698 -75.22935 -21.88628 166.38694 133.44509 87.14688 71.51189 -64.36203 -75.22911 21.8914 60.72723 2.33349 -9.64478 -19.01611 -8.30016 -2.36568 -3.4654 30.89922 12.48719 7.87914 -39.17428 -7.4121 -0.33974 2.13263
0.5002 -0.03131 -0.53315 883.10836 -30.24427 -1.70612 33.72142 6.34179 -8.1149 -15.81188 9.10996 -2.11994 166.38694 -160.51014 -87.14679 5.78722 66.8611 -75.22923 -21.88628 166.38694 134.35722 87.14688 69.70718 -64.24851 -75.20107 21.79102 60.88363 2.18661 -8.30777 -20.92616 -8.487 -2.52083 -3.54864 30.36857 12.75345 7.44657 -39.92538 -7.60315 -0.43636 2.09387
0.48972 -0.03229 -0.53908 884.33485 -30.26743 -1.377 33.7749 6.60736 -8.48125 -15.89495 9.49603 -2.11994 166.38694 -160.50518 -87.14679 5.78717 66.69069 -75.22933 -21.88638 166.38694 135.34642 87.14688 67.73202 -63.93652 -75.30806 22.13364 61.13894 2.02459 -6.72694 -23.00511 -8.72546 -2.69564 -3.64381 29.6143 13.0002 7.07201 -40.41848 -7.75788 -0.53152 2.05485
0.47937 -0.03277 -0.54497 885.48896 -30.26575 -1.08069 33.79706 6.92621 -8.77613 -15.98389 9.81055 -2.11994 166.38694 -160.4938 -87.14679 5.78713 66.44757 -75.2291 -21.88567 166.38694 136.21465 87.14688 65.95218 -64.02512 -75.11679 21.56073 61.18665 1.86546 -5.62665 -24.98045 -8.87232 -2.84165 -3.72085 29.33854 13.29128 6.54438 -41.47524 -7.99511 -0.63153 2.01572
0.4694 -0.03197 -0.55076 886.43626 -30.21563 -0.87888 33.74492 7.39066 -8.87604 -16.08241 9.93614 -2.11994 166.38694 -160.46937 -87.14679 5.7871 66.01807 -75.22968 -21.88753 166.38693 136.73411 87.14686 64.88898 -65.31117 -74.21637 18.29686 60.69223 1.74645 -5.8778 -26.43945 -8.74757 -2.89694 -3.74149 30.35657 13.69857 5.59313 -44.08292 -8.46771 -0.74899 1.97449
0.45959 -0.03068 -0.5565 887.30653 -30.14156 -0.7101 33.65983 7.90568 -8.8988 -16.18684 9.98654 -2.11994 166.38694 -160.43831 -87.14679 5.78707 65.5227 -75.22879 -21.88463 166.38691 137.11671 87.14683 64.05207 -66.98405 -72.99952 14.1465 59.98338 1.63393 -6.61943 -27.74496 -8.52919 -2.92082 -3.74267 31.85718 14.1495 4.50032 -47.24518 -9.01859 -0.86963 1.93383
0.44974 -0.0296 -0.56223 888.20711 -30.07371 -0.52518 33.58259 8.39298 -8.94763 -16.2912 10.06117 -2.11994 166.38694 -160.40839 -87.14679 5.78705 65.0568 -75.22909 -21.88544 166.38689 137.5385 87.14681 63.11333 -68.4207 -71.8523 10.51965 59.3514 1.5158 -7.14552 -29.09206 -8.3556 -2.95739 -3.75205 33.14806 14.58293 3.49741 -50.14078 -9.52279 -0.98439 1.89474
